<svg xmlns="http://www.w3.org/2000/svg" viewBox="-35.8 -71.0 113.9 113.9"><line x1="-31.8" y1="38.9" x2="74.1" y2="38.9" stroke="#8a94a3" stroke-width="1.5" opacity=".6"/><line x1="5.2" y1="-29.5" x2="-5.1" y2="-17.3" stroke="#9dbbdc" stroke-width="6" stroke-linecap="round"/><line x1="-5.1" y1="-17.3" x2="2.4" y2="-4.3" stroke="#9dbbdc" stroke-width="5.5" stroke-linecap="round"/><line x1="0.0" y1="0.0" x2="-11.5" y2="16.4" stroke="#9dbbdc" stroke-width="7" stroke-linecap="round"/><line x1="-11.5" y1="16.4" x2="-2.0" y2="32.8" stroke="#9dbbdc" stroke-width="6" stroke-linecap="round"/><line x1="-2.0" y1="32.8" x2="3.7" y2="34.9" stroke="#9dbbdc" stroke-width="5" stroke-linecap="round"/><line x1="0.0" y1="0.0" x2="5.2" y2="-29.5" stroke="#2f5d8c" stroke-width="10" stroke-linecap="round"/><line x1="0.0" y1="0.0" x2="17.3" y2="10.0" stroke="#2f5d8c" stroke-width="7.5" stroke-linecap="round"/><line x1="17.3" y1="10.0" x2="7.8" y2="26.5" stroke="#2f5d8c" stroke-width="6.5" stroke-linecap="round"/><line x1="7.8" y1="26.5" x2="13.8" y2="26.5" stroke="#2f5d8c" stroke-width="5" stroke-linecap="round"/><line x1="5.2" y1="-29.5" x2="13.2" y2="-15.7" stroke="#2f5d8c" stroke-width="6.5" stroke-linecap="round"/><line x1="13.2" y1="-15.7" x2="26.2" y2="-23.2" stroke="#2f5d8c" stroke-width="6" stroke-linecap="round"/><circle cx="7.3" cy="-41.4" r="7" fill="#2f5d8c" stroke="#fff" stroke-width="1.5"/><path transform="translate(34.0 -34.0) scale(1.8)" fill="#d64545" d="M0 4 C-6 -3 -10 -8 -5 -12 C-2 -14 0 -10 0 -8 C0 -10 2 -14 5 -12 C10 -8 6 -3 0 4 Z"/></svg>
