<svg xmlns="http://www.w3.org/2000/svg" viewBox="-30.8 -51.8 98.8 98.8"><line x1="-26.8" y1="43.0" x2="64.0" y2="43.0" stroke="#8a94a3" stroke-width="1.5" opacity=".6"/><rect x="4.0" y="20.0" width="20.0" height="19.0" rx="2" fill="#8a94a3" opacity=".45"/><rect x="24.0" y="8.0" width="20.0" height="31.0" rx="2" fill="#8a94a3" opacity=".45"/><line x1="2.6" y1="-29.9" x2="-5.4" y2="-16.0" stroke="#9dbbdc" stroke-width="6" stroke-linecap="round"/><line x1="-5.4" y1="-16.0" x2="-2.8" y2="-1.3" stroke="#9dbbdc" stroke-width="5.5" stroke-linecap="round"/><line x1="0.0" y1="0.0" x2="-6.8" y2="18.8" stroke="#9dbbdc" stroke-width="7" stroke-linecap="round"/><line x1="-6.8" y1="18.8" x2="-3.5" y2="37.5" stroke="#9dbbdc" stroke-width="6" stroke-linecap="round"/><line x1="-3.5" y1="37.5" x2="2.5" y2="37.5" stroke="#9dbbdc" stroke-width="5" stroke-linecap="round"/><line x1="0.0" y1="0.0" x2="2.6" y2="-29.9" stroke="#2f5d8c" stroke-width="10" stroke-linecap="round"/><line x1="0.0" y1="0.0" x2="18.8" y2="6.8" stroke="#2f5d8c" stroke-width="7.5" stroke-linecap="round"/><line x1="18.8" y1="6.8" x2="18.8" y2="25.8" stroke="#2f5d8c" stroke-width="6.5" stroke-linecap="round"/><line x1="18.8" y1="25.8" x2="24.8" y2="25.8" stroke="#2f5d8c" stroke-width="5" stroke-linecap="round"/><line x1="2.6" y1="-29.9" x2="10.6" y2="-16.0" stroke="#2f5d8c" stroke-width="6.5" stroke-linecap="round"/><line x1="10.6" y1="-16.0" x2="8.0" y2="-1.3" stroke="#2f5d8c" stroke-width="6" stroke-linecap="round"/><circle cx="3.7" cy="-41.8" r="7" fill="#2f5d8c" stroke="#fff" stroke-width="1.5"/></svg>
