<svg xmlns="http://www.w3.org/2000/svg" viewBox="-47.4 -52.0 97.5 97.5"><line x1="-43.4" y1="41.5" x2="46.1" y2="41.5" stroke="#8a94a3" stroke-width="1.5" opacity=".6"/><line x1="0.0" y1="-30.0" x2="-2.2" y2="-14.2" stroke="#9dbbdc" stroke-width="6" stroke-linecap="round"/><line x1="-2.2" y1="-14.2" x2="-4.3" y2="0.7" stroke="#9dbbdc" stroke-width="5.5" stroke-linecap="round"/><line x1="0.0" y1="0.0" x2="-6.8" y2="18.8" stroke="#9dbbdc" stroke-width="7" stroke-linecap="round"/><line x1="-6.8" y1="18.8" x2="-3.5" y2="37.5" stroke="#9dbbdc" stroke-width="6" stroke-linecap="round"/><line x1="-3.5" y1="37.5" x2="2.5" y2="37.5" stroke="#9dbbdc" stroke-width="5" stroke-linecap="round"/><line x1="0.0" y1="0.0" x2="0.0" y2="-30.0" stroke="#2f5d8c" stroke-width="10" stroke-linecap="round"/><line x1="0.0" y1="0.0" x2="6.8" y2="18.8" stroke="#2f5d8c" stroke-width="7.5" stroke-linecap="round"/><line x1="6.8" y1="18.8" x2="3.5" y2="37.5" stroke="#2f5d8c" stroke-width="6.5" stroke-linecap="round"/><line x1="3.5" y1="37.5" x2="9.5" y2="37.5" stroke="#2f5d8c" stroke-width="5" stroke-linecap="round"/><line x1="0.0" y1="-30.0" x2="0.0" y2="-14.0" stroke="#2f5d8c" stroke-width="6.5" stroke-linecap="round"/><line x1="0.0" y1="-14.0" x2="0.0" y2="1.0" stroke="#2f5d8c" stroke-width="6" stroke-linecap="round"/><circle cx="0.0" cy="-42.0" r="7" fill="#2f5d8c" stroke="#fff" stroke-width="1.5"/><line x1="-5.0" y1="1.0" x2="5.0" y2="1.0" stroke="#8a94a3" stroke-width="2" stroke-linecap="round"/><rect x="-7.0" y="-2.5" width="4" height="7" rx="1" fill="#8a94a3"/><rect x="3.0" y="-2.5" width="4" height="7" rx="1" fill="#8a94a3"/><line x1="-9.3" y1="0.7" x2="0.7" y2="0.7" stroke="#8a94a3" stroke-width="2" stroke-linecap="round"/><rect x="-11.3" y="-2.8" width="4" height="7" rx="1" fill="#8a94a3"/><rect x="-1.3" y="-2.8" width="4" height="7" rx="1" fill="#8a94a3"/></svg>
